<?xml version="1.0" encoding="UTF-8"?>
<svg width="147px" height="30px" viewBox="0 0 147 30" version="1.1" xmlns="http://www.w3.org/2000/svg" xmlns:xlink="http://www.w3.org/1999/xlink">
    <!-- Generator: Sketch 44 (41411) - http://www.bohemiancoding.com/sketch -->
    <title>logo</title>
    <desc>Created with Sketch.</desc>
    <defs></defs>
    <g id="Layouts-desktop" stroke="none" stroke-width="1" fill="none" fill-rule="evenodd">
        <g id="Hungerrace-home-v3" transform="translate(-15.000000, -15.000000)">
            <g id="navbar">
                <g id="logo" transform="translate(15.000000, 15.000000)">
                    <polyline id="Fill-1" fill="#212620" points="40.9333939 14.4486026 37.224144 14.4486026 37.224144 10.2631579 35.5263158 10.2631579 35.5263158 20.5263158 37.224144 20.5263158 37.224144 16.3121239 40.9333939 16.3121239 40.9333939 20.5263158 42.6315789 20.5263158 42.6315789 10.2631579 40.9333939 10.2631579 40.9333939 14.4486026"></polyline>
                    <path d="M51.9861108,17.1168833 C51.9861108,18.2063694 51.0211192,18.702844 50.1246224,18.702844 C49.0361976,18.702844 48.3451851,18.1075341 48.2770471,17.1168833 L48.2770471,10.2631579 L46.5789474,10.2631579 L46.5789474,17.1168833 C46.5789474,19.0924387 48.0701358,20.5263158 50.1246224,20.5263158 C52.2536685,20.5263158 53.6842105,19.1560304 53.6842105,17.1168833 L53.6842105,10.2631579 L51.9861108,10.2631579 L51.9861108,17.1168833" id="Fill-2" fill="#212620"></path>
                    <polyline id="Fill-3" fill="#212620" points="64.4574448 17.2759338 59.4796935 10.2631579 57.6315789 10.2631579 57.6315789 20.5263158 59.5044819 20.5263158 59.5044819 13.5143168 64.4672814 20.5263158 66.3157895 20.5263158 66.3157895 10.2631579 64.4574448 10.2631579 64.4574448 17.2759338"></polyline>
                    <path d="M75.3913694,16.3574983 L77.0889412,16.3574983 L77.0889412,17.6675037 C76.4568417,18.351412 75.5854111,18.7277505 74.6312102,18.7277505 C72.5350136,18.7277505 71.3328923,17.5129632 71.3328923,15.3947368 C71.3328923,13.4321847 72.6892318,12.0617232 74.6312102,12.0617232 C75.5038121,12.0617232 76.3553309,12.4010324 76.9667379,12.9931231 L77.0237401,13.0482892 L78.328153,11.7877821 L78.2715412,11.7329938 C77.3075797,10.7853464 76.0144891,10.2631579 74.6312102,10.2631579 C71.7393256,10.2631579 69.4736842,12.5174102 69.4736842,15.3947368 C69.4736842,18.4640113 71.4586094,20.5263158 74.4133526,20.5263158 C75.6162547,20.5263158 76.4459097,20.2519968 77.2337892,19.5862253 L77.3126552,20.4273191 L78.9473684,20.4273191 L78.9473684,14.6428156 L75.3913694,14.6428156 L75.3913694,16.3574983" id="Fill-4" fill="#212620"></path>
                    <path d="M95.8815953,14.457926 L94.4873147,12.1130825 L95.6367389,12.1130825 C95.651858,12.1130825 97.1634043,12.1266792 97.1634043,13.2878351 C97.1634043,14.1925966 96.3019815,14.4070356 95.8815953,14.457926 Z M98.9190695,13.2878351 C98.9190695,10.2981208 95.6695585,10.2631579 95.6367389,10.2631579 L92.3684211,10.2631579 L92.3684211,12.0559765 L93.8272347,14.4773498 L92.3684211,14.4773498 L92.3684211,20.5263158 L94.1237175,20.5263158 L94.1237175,16.3121239 L94.9231887,16.3121239 L97.4163735,20.5263158 L99.4736842,20.5263158 L96.850696,16.1062314 C97.8172153,15.7966157 98.9190695,15.0557912 98.9190695,13.2878351 L98.9190695,13.2878351 Z" id="Fill-5" fill="#212620"></path>
                    <polyline id="Fill-6" fill="#212620" points="82.1052632 15.7894737 87.6416679 15.7894737 87.6416679 14.1322567 83.7980782 14.1322567 83.7980782 11.9613951 88.4210526 11.9613951 88.4210526 10.2631579 82.1052632 10.2631579 82.1052632 15.7894737"></polyline>
                    <polyline id="Fill-7" fill="#212620" points="82.1052632 19.7368421 88.4210526 19.7368421 88.4210526 18.1638418 82.1052632 18.1578947 82.1052632 19.7368421"></polyline>
                    <path d="M109.303009,14.457926 L107.907701,12.1130825 L109.05847,12.1130825 C109.120803,12.1130825 110.585084,12.1282331 110.585084,13.2878351 C110.585084,14.1925966 109.723851,14.4070356 109.303009,14.457926 Z M112.340376,13.2878351 C112.340376,10.2981208 109.091297,10.2631579 109.05847,10.2631579 L105.789474,10.2631579 L105.789474,12.0559765 L107.247484,14.4773498 L105.789474,14.4773498 L105.789474,20.5263158 L107.545503,20.5263158 L107.545503,16.3121239 L108.344403,16.3121239 L110.837737,20.5263158 L112.894737,20.5263158 L110.272679,16.1062314 C111.238662,15.7966157 112.340376,15.0561797 112.340376,13.2878351 L112.340376,13.2878351 Z" id="Fill-8" fill="#212620"></path>
                    <path d="M133.748471,12.0617232 C134.603282,12.0617232 135.436685,12.4010324 136.035741,12.9931231 L136.091556,13.0482892 L137.368421,11.7877821 L137.313371,11.7329938 C136.369485,10.7853464 135.103324,10.2631579 133.748471,10.2631579 C130.766953,10.2631579 128.684211,12.3734494 128.684211,15.3947368 C128.684211,18.3680374 130.814358,20.5263158 133.748471,20.5263158 C135.097589,20.5263158 136.362986,20.009795 137.312988,19.071216 L137.368421,19.0164277 L136.091938,17.7404288 L136.035741,17.7959727 C135.436685,18.3884413 134.603282,18.7277505 133.748471,18.7277505 C131.855347,18.7277505 130.532989,17.357289 130.532989,15.3947368 C130.532989,13.401201 131.825145,12.0617232 133.748471,12.0617232" id="Fill-9" fill="#212620"></path>
                    <polyline id="Fill-10" fill="#212620" points="140.526316 10.2631579 140.526316 15.7894737 146.062721 15.7894737 146.062721 14.1322567 142.219131 14.1322567 142.219131 11.9613951 146.842105 11.9613951 146.842105 10.2631579 140.526316 10.2631579"></polyline>
                    <polyline id="Fill-11" fill="#212620" points="140.526316 19.7368421 146.842105 19.7368421 146.842105 18.1638418 140.526316 18.1578947 140.526316 19.7368421"></polyline>
                    <polyline id="Fill-12" fill="#212620" points="116.842105 19.7368421 118.736177 19.7368421 119.147723 18.6145539 119.155112 18.6145539 120.783193 14.0001224 122.854592 19.7368421 124.736842 19.7368421 120.782454 9.47368421 116.842105 19.7368421"></polyline>
                    <path d="M15.7894737,1.79498601 C22.3088768,2.2570504 27.4774324,7.87927453 27.4774324,14.728255 C27.4774324,16.768819 27.0169079,18.7001952 26.2004737,20.4196188 L27.7027566,21.3157895 C28.6655052,19.3311417 29.2105263,17.094871 29.2105263,14.728255 C29.2105263,6.89129549 23.2654071,0.464709071 15.7894737,0 L15.7894737,1.79498601" id="Fill-13" fill="#A22929"></path>
                    <path d="M25.2992309,22.1052632 C22.9796588,25.7307943 19.05183,28.1193748 14.605451,28.1193748 C10.1590721,28.1193748 6.23124327,25.7307943 3.91167113,22.1052632 L2.36842105,23.0457742 C4.99949899,27.232834 9.50111476,30 14.605451,30 C19.7094116,30 24.2114031,27.232834 26.8421053,23.0457742 L25.2992309,22.1052632" id="Fill-14" fill="#A22929"></path>
                    <path d="M3.01025436,20.4196188 C2.1938646,18.7001952 1.73336518,16.768819 1.73336518,14.728255 C1.73336518,7.87927453 6.90163906,2.2570504 13.4210526,1.79498601 L13.4210526,0 C5.94516092,0.464709071 0,6.89129549 0,14.728255 C0,17.094871 0.545357138,19.3311417 1.50805331,21.3157895 L3.01025436,20.4196188" id="Fill-15" fill="#A22929"></path>
                    <polyline id="Fill-16" fill="#A22929" points="12.3685495 15.7894737 14.2105263 15.7894737 14.2105263 14.0527769 10.5261873 14.0527769 10.5261873 7.10526316 8.68421053 7.10526316 8.68421053 15.7894737 12.3685495 15.7894737"></polyline>
                    <polyline id="Fill-17" fill="#A22929" points="17.3684211 10.7896022 17.3684211 7.10526316 15.7894737 7.10526316 15.7894737 12.6315789 17.3684211 12.6315789 17.3684211 10.7896022"></polyline>
                    <polyline id="Fill-18" fill="#A22929" points="17.706713 17.3684211 8.68421053 17.3684211 8.68421053 22.8947368 10.48856 22.8947368 10.48856 19.2103978 19.5110624 19.2103978 19.5110624 22.8947368 21.3157895 22.8947368 21.3157895 17.3684211 17.706713 17.3684211"></polyline>
                    <polyline id="Fill-19" fill="#A22929" points="19.4734273 7.10526316 19.4734273 14.0527769 15.7894737 14.0527769 15.7894737 15.7894737 21.3157895 15.7894737 21.3157895 7.10526316 19.4734273 7.10526316"></polyline>
                    <polyline id="Fill-20" fill="#A22929" points="13.4210526 10.7896022 13.4210526 7.10526316 11.8421053 7.10526316 11.8421053 12.6315789 13.4210526 12.6315789 13.4210526 10.7896022"></polyline>
                </g>
            </g>
        </g>
    </g>
</svg>