<?xml version="1.0" encoding="UTF-8"?>
<svg width="87px" height="95px" viewBox="0 0 87 95" version="1.1" xmlns="http://www.w3.org/2000/svg" xmlns:xlink="http://www.w3.org/1999/xlink">
    <!-- Generator: Sketch 44 (41411) - http://www.bohemiancoding.com/sketch -->
    <title>code</title>
    <desc>Created with Sketch.</desc>
    <defs></defs>
    <g id="Page-1" stroke="none" stroke-width="1" fill="none" fill-rule="evenodd">
        <g id="iPhone-7" transform="translate(-125.000000, -157.000000)" fill-rule="nonzero" fill="#4A4A4A">
            <g id="code" transform="translate(125.000000, 157.000000)">
                <path d="M54.3786797,21.6213203 L81.8832247,49.1258654 C83.0547976,50.2974383 84.9542925,50.2974383 86.1258654,49.1258654 C87.2974383,47.9542925 87.2974383,46.0547976 86.1258654,44.8832247 L58.6213203,17.3786797 C57.4497475,16.2071068 55.5502525,16.2071068 54.3786797,17.3786797 C53.2071068,18.5502525 53.2071068,20.4497475 54.3786797,21.6213203 Z" id="Line"></path>
                <path d="M58.6213203,76.6213203 L86.1258654,49.1167753 C87.2974383,47.9452024 87.2974383,46.0457075 86.1258654,44.8741346 C84.9542925,43.7025617 83.0547976,43.7025617 81.8832247,44.8741346 L54.3786797,72.3786797 C53.2071068,73.5502525 53.2071068,75.4497475 54.3786797,76.6213203 C55.5502525,77.7928932 57.4497475,77.7928932 58.6213203,76.6213203 Z" id="Line-Copy"></path>
                <path d="M1.17100958,49.463455 L28.6755547,76.968 C29.8471275,78.1395729 31.7466225,78.1395729 32.9181953,76.968 C34.0897682,75.7964272 34.0897682,73.8969322 32.9181953,72.7253593 L5.41365026,45.2208143 C4.24207739,44.0492414 2.34258245,44.0492414 1.17100958,45.2208143 C-0.000563297764,46.3923871 -0.000563297764,48.2918821 1.17100958,49.463455 Z" id="Line" transform="translate(17.044602, 61.094407) rotate(-180.000000) translate(-17.044602, -61.094407) "></path>
                <path d="M5.41365026,49.4725451 L32.9181953,21.968 C34.0897682,20.7964272 34.0897682,18.8969322 32.9181953,17.7253593 C31.7466225,16.5537865 29.8471275,16.5537865 28.6755547,17.7253593 L1.17100958,45.2299044 C-0.000563297764,46.4014773 -0.000563297764,48.3009722 1.17100958,49.4725451 C2.34258245,50.644118 4.24207739,50.644118 5.41365026,49.4725451 Z" id="Line-Copy" transform="translate(17.044602, 33.598952) rotate(-180.000000) translate(-17.044602, -33.598952) "></path>
                <path d="M29.9000172,92.2692638 L62.9000172,4.26926384 C63.4817775,2.71790286 62.6957609,0.988666345 61.1443999,0.406905978 C59.593039,-0.174854388 57.8638025,0.61116221 57.2820421,2.16252319 L24.2820421,90.1625232 C23.7002817,91.7138842 24.4862983,93.4431207 26.0376593,94.024881 C27.5890203,94.6066414 29.3182568,93.8206248 29.9000172,92.2692638 Z" id="Line"></path>
            </g>
        </g>
    </g>
</svg>