<?xml version="1.0" encoding="UTF-8"?>
<svg width="77px" height="48px" viewBox="0 0 77 48" version="1.1" xmlns="http://www.w3.org/2000/svg" xmlns:xlink="http://www.w3.org/1999/xlink">
    <!-- Generator: Sketch 44 (41411) - http://www.bohemiancoding.com/sketch -->
    <title>Group 2</title>
    <desc>Created with Sketch.</desc>
    <defs></defs>
    <g id="Symbols" stroke="none" stroke-width="1" fill="none" fill-rule="evenodd">
        <g id="icon/commando" fill="#A39E94">
            <g id="Group-2">
                <path d="M51.5355325,8.5355325 C49.5829125,10.4881625 46.4170925,10.4881625 44.4644725,8.5355325 C42.5118425,6.5829125 42.5118425,3.4170925 44.4644725,1.4644725 C46.4170925,-0.4881575 49.5829125,-0.4881575 51.5355325,1.4644725 C53.4881525,3.4170925 53.4881525,6.5829125 51.5355325,8.5355325 Z" id="Fill-4"></path>
                <path d="M51.5889602,12.9075408 C51.8159712,12.4063128 51.5656559,11.8758893 51.0377233,11.7250519 L38,8 L38.977793,2.10722724 C38.977793,1.11088724 38.297133,0.187427238 37.313793,0.0273972383 C36.060803,-0.176522762 34.977793,0.785327238 34.977793,1.99999724 L33.977793,8.99999724 C33.977793,10.1045472 35,11 35.977793,10.9999972 L43,13 L39,23 L31.872333,19.2109372 C31.010033,18.7812472 29.958273,19.0273472 29.378193,19.7998072 L23.440694,27.7164372 C22.842304,28.5142872 22.835774,29.6626672 23.528954,30.3797672 C23.935193,30.8000972 24.458503,30.9999872 24.975843,30.9999872 C25.584243,30.9999872 26.184823,30.7236172 26.577403,30.2001872 L31.576423,23.5351472 L37.741463,26.6181572 C38.165723,26.8300072 41.832343,28.6055272 41.832343,28.6055272 C45,29 45,27 46.977733,23.0901372 C46.977123,23.0901372 51.5889602,12.9075408 51.5889602,12.9075408 Z" id="Fill-5"></path>
                <path d="M38.5659583,68.9307349 C38.0132283,68.9307349 37.5659583,68.1528733 37.5659583,67.1916038 L37.5659583,30.8912194 L37.5659583,-9.33013476 C37.5659583,-10.2914043 38.0132283,-11.0692651 38.5659583,-11.0692651 C39.1186883,-11.0692651 39.5659583,-10.2914043 39.5659583,-9.33013476 C39.5659583,-9.33013476 39.3181185,17.4628071 39.3181185,31.2456461 C39.3181185,42.9700533 39.5659583,67.1916038 39.5659583,67.1916038 C39.5659583,68.152889 39.1186883,68.9307349 38.5659583,68.9307349 Z" id="Fill-3" transform="translate(38.565958, 28.930735) scale(-1, 1) rotate(108.000000) translate(-38.565958, -28.930735) "></path>
                <path d="M48.1948716,29.1235823 C49.0648388,28.4429717 49.2183427,27.18598 48.5377321,26.3160128 C47.8571215,25.4460456 46.6001298,25.2925417 45.7301626,25.9731523 L38.3448194,31.7510052 L38.3448194,31.7510052 C37.6387738,32.3033733 37.2167406,33.1425396 37.1942919,34.0387019 L36.9261322,44.7437592 C36.8984716,45.8479823 37.771198,46.7655553 38.8754211,46.7932159 C39.9796442,46.8208765 40.8972172,45.9481502 40.9248778,44.843927 L41.1812196,34.6106462 L48.1948716,29.1235823 Z" id="Path-2" fill-rule="nonzero" transform="translate(42.944049, 36.171067) rotate(-25.000000) translate(-42.944049, -36.171067) "></path>
                <path d="M46.0472582,16.3093008 C44.9753303,16.0427593 43.8902865,16.6956539 43.623745,17.7675818 C43.3572034,18.8395097 47.6109944,20.8199388 48.8754786,21.1343606 C51.3256158,21.7436025 53.775753,22.3528443 56.2258902,22.9620862 L56.2258902,22.9620862 C57.6982902,23.3282076 59.2122579,22.537376 59.7528949,21.1197307 L62.3099731,14.4146217 C62.7035644,13.382556 62.1859787,12.2268326 61.153913,11.8332413 C60.1218472,11.43965 58.9661239,11.9572357 58.5725325,12.9893014 L56.331201,18.8664671 L46.0472582,16.3093008 Z" id="Path-2" fill-rule="nonzero" transform="translate(53.026775, 17.376313) scale(1, -1) rotate(-33.000000) translate(-53.026775, -17.376313) "></path>
            </g>
        </g>
    </g>
</svg>