<?xml version="1.0" encoding="UTF-8"?>
<svg width="80px" height="45px" viewBox="0 0 80 45" version="1.1" xmlns="http://www.w3.org/2000/svg" xmlns:xlink="http://www.w3.org/1999/xlink">
    <!-- Generator: Sketch 44 (41411) - http://www.bohemiancoding.com/sketch -->
    <title>Group 2</title>
    <desc>Created with Sketch.</desc>
    <defs></defs>
    <g id="Symbols" stroke="none" stroke-width="1" fill="none" fill-rule="evenodd">
        <g id="icon/deathride" fill="#A39E94">
            <g id="icon">
                <g id="Group-2">
                    <path d="M39.6945829,48.0607673 C39.1418529,48.0607673 38.6945829,47.2829057 38.6945829,46.3216362 L38.6945829,-30.2001024 C38.6945829,-31.1613719 39.1418529,-31.9392327 39.6945829,-31.9392327 C40.2473129,-31.9392327 40.6945829,-31.1613719 40.6945829,-30.2001024 L40.6945829,46.3216362 C40.6945829,47.2829214 40.2473129,48.0607673 39.6945829,48.0607673 Z" id="Fill-3" transform="translate(39.694583, 8.060767) rotate(100.000000) translate(-39.694583, -8.060767) "></path>
                    <path d="M27.5355325,10.4644725 C29.4881525,12.4170925 29.4881525,15.5829125 27.5355325,17.5355325 C25.5829125,19.4881625 22.4170925,19.4881625 20.4644725,17.5355325 C18.5118425,15.5829125 18.5118425,12.4170925 20.4644725,10.4644725 C22.4170925,8.5118425 25.5829125,8.5118425 27.5355325,10.4644725" id="Fill-4" transform="translate(23.999999, 14.000003) scale(1, -1) rotate(-180.000000) translate(-23.999999, -14.000003) "></path>
                    <path d="M27.6981939,19.6376619 C27.695017,19.6393074 27.6918455,19.6409718 27.6886796,19.6426551 L22.3857496,22.462273 C21.8995594,22.7207849 21.7198136,23.3335579 21.9724336,23.8086672 L29.0453356,37.1108611 C29.4195477,37.8146516 29.9746555,38.3605707 30.6228501,38.7222517 C30.9838129,39.0397277 31.4596753,39.2288268 31.9781854,39.2197761 L32.2182311,39.2155861 C32.5042703,39.2416713 32.7942903,39.2371486 33.083196,39.2004881 L42.6432275,39.0336171 C43.075902,39.0260648 43.4993547,39.1590505 43.8500257,39.4126133 L50.8730556,44.490818 C51.768143,45.1380368 53.0184293,44.9370996 53.6656482,44.0420122 C54.312867,43.1469247 54.1119298,41.8966384 53.2168424,41.2494196 L45.1133464,35.3899527 C44.7626753,35.1363898 44.3392227,35.0034041 43.9065482,35.0109565 L38.8093956,35.0999276 L45.7421739,32.3293781 L53.1625477,36.4434699 C54.1285756,36.9790666 55.3458829,36.6301331 55.8814796,35.6641052 C56.4170763,34.6980772 56.0681428,33.4807699 55.1021149,32.9451733 L46.8513988,28.3707132 C46.3259379,28.079381 45.6973432,28.0397107 45.1394255,28.2626716 L35.4583383,32.1315291 L30.4104261,22.6377872 L36.9919562,18.261769 C37.6228541,17.842289 37.962565,17.1023315 37.8694322,16.3504525 L36.6061587,6.15179457 C36.4703771,5.05560247 35.471665,4.27703596 34.3754729,4.41281759 C33.2792808,4.54859923 32.5007143,5.54731127 32.636496,6.64350337 L33.747804,15.615314 L27.6981939,19.6376619 Z" id="Combined-Shape"></path>
                </g>
            </g>
        </g>
    </g>
</svg>