<?xml version="1.0" encoding="UTF-8"?>
<svg width="36px" height="24px" viewBox="0 0 36 24" version="1.1" xmlns="http://www.w3.org/2000/svg" xmlns:xlink="http://www.w3.org/1999/xlink">
    <!-- Generator: Sketch 44 (41411) - http://www.bohemiancoding.com/sketch -->
    <title>Shape</title>
    <desc>Created with Sketch.</desc>
    <defs>
        <path d="M22.2731932,19.9231254 C21.387281,25.8360099 17.0483237,29.2258065 11.4308017,29.2258065 C5.11800983,29.2258065 1.70530257e-13,24.0259008 1.70530257e-13,17.6120947 C1.70530257e-13,11.1999057 5.11800983,6 11.4308017,6 C14.4844873,6 17.1601853,7.10717878 19.1077596,9.02909145 L15.8272814,12.3620622 C14.7162819,11.2248536 13.1959189,10.6187119 11.4308017,10.6187119 C7.71481352,10.6187119 4.70216656,13.8381466 4.70216656,17.6119792 C4.70216656,21.3891613 7.71481352,24.5151569 11.4308017,24.5151569 C14.5453064,24.5151569 16.9038358,22.9855962 17.5842136,19.9231254 L11.4308017,19.9231254 L11.4308017,15.2592532 L22.2453415,15.2592532 C22.3751646,16.0106933 22.4408719,16.7971298 22.4408719,17.6119792 C22.4407582,18.4202451 22.3832359,19.1900497 22.2731932,19.9231254 Z M36,18.4770709 L31.9946949,18.4770709 L31.9946949,22.5447344 L29.1497267,22.5447344 L29.1497267,18.4770709 L25.1444216,18.4770709 L25.1444216,15.5848465 L29.1497267,15.5848465 L29.1497267,11.5154505 L31.9946949,11.5154505 L31.9946949,15.5848465 L36,15.5848465 L36,18.4770709 L36,18.4770709 Z" id="path-1"></path>
    </defs>
    <g id="Symbols" stroke="none" stroke-width="1" fill="none" fill-rule="evenodd">
        <g id="icon/social-media/google" transform="translate(0.000000, -6.000000)">
            <mask id="mask-2" fill="white">
                <use xlink:href="#path-1"></use>
            </mask>
            <use id="Shape" fill="#FFFFFF" fill-rule="nonzero" xlink:href="#path-1"></use>
        </g>
    </g>
</svg>