<?xml version="1.0" encoding="UTF-8"?>
<svg width="298px" height="131px" viewBox="0 0 298 131" version="1.1" xmlns="http://www.w3.org/2000/svg" xmlns:xlink="http://www.w3.org/1999/xlink">
    <!-- Generator: Sketch 44 (41411) - http://www.bohemiancoding.com/sketch -->
    <title>logo-v</title>
    <desc>Created with Sketch.</desc>
    <defs></defs>
    <g id="Symbols" stroke="none" stroke-width="1" fill="none" fill-rule="evenodd">
        <g id="Modules/offcanvas" transform="translate(-571.000000, -52.000000)" fill="#FFFFFF">
            <g id="offcanvas">
                <g id="logo-v" transform="translate(571.000000, 52.000000)">
                    <polyline id="Fill-1" points="15.156 113.773 4.759 113.773 4.759 103 0 103 0 129.418 4.759 129.418 4.759 118.571 15.156 118.571 15.156 129.418 19.916 129.418 19.916 103 15.156 103 15.156 113.773"></polyline>
                    <path d="M44.157,120.89 C44.157,123.735 41.452,125.031 38.939,125.031 C35.888,125.031 33.951,123.477 33.76,120.89 L33.76,103 L29,103 L29,120.89 C29,126.047 33.18,129.79 38.939,129.79 C44.907,129.79 48.917,126.213 48.917,120.89 L48.917,103 L44.157,103 L44.157,120.89" id="Fill-2"></path>
                    <polyline id="Fill-3" points="75.348 121.051 62.697 103 58 103 58 129.418 62.76 129.418 62.76 111.369 75.374 129.418 80.071 129.418 80.071 103 75.348 103 75.348 121.051"></polyline>
                    <path d="M105.157,119.128 L109.505,119.128 L109.505,122.595 C107.886,124.406 105.654,125.402 103.21,125.402 C97.841,125.402 94.762,122.187 94.762,116.58 C94.762,111.387 98.236,107.759 103.21,107.759 C105.446,107.759 107.626,108.657 109.192,110.225 L109.338,110.371 L112.679,107.035 L112.534,106.889 C110.065,104.381 106.753,103 103.21,103 C95.803,103 90,108.965 90,116.58 C90,124.703 95.084,130.161 102.652,130.161 C105.733,130.161 107.858,129.436 109.876,127.673 L110.078,129.9 L114.265,129.9 L114.265,114.59 L105.157,114.59 L105.157,119.128" id="Fill-4"></path>
                    <path d="M160.527,113.797 L156.747,107.762 L159.863,107.762 C159.904,107.762 164.003,107.796 164.003,110.786 C164.003,113.115 161.667,113.667 160.527,113.797 Z M168.764,110.786 C168.764,103.089 159.952,103 159.863,103 L151,103 L151,107.615 L154.956,113.848 L151,113.848 L151,129.418 L155.76,129.418 L155.76,118.571 L157.928,118.571 L164.689,129.418 L170.268,129.418 L163.155,118.04 C165.776,117.244 168.764,115.336 168.764,110.786 L168.764,110.786 Z" id="Fill-5"></path>
                    <polyline id="Fill-6" points="124 118.494 139.571 118.494 139.571 113.848 128.761 113.848 128.761 107.762 141.763 107.762 141.763 103 124 103 124 118.494"></polyline>
                    <polyline id="Fill-7" points="124 129.779 141.763 129.779 141.763 125.019 124 125 124 129.779"></polyline>
                    <path d="M197.526,113.797 L193.743,107.762 L196.863,107.762 C197.032,107.762 201.002,107.8 201.002,110.786 C201.002,113.114 198.667,113.666 197.526,113.797 Z M205.762,110.786 C205.762,103.089 196.952,103 196.863,103 L188,103 L188,107.615 L191.953,113.848 L188,113.848 L188,129.418 L192.761,129.418 L192.761,118.571 L194.927,118.571 L201.687,129.418 L207.264,129.418 L200.155,118.04 C202.774,117.244 205.762,115.337 205.762,110.786 L205.762,110.786 Z" id="Fill-8"></path>
                    <path d="M261.248,107.759 C263.483,107.759 265.664,108.657 267.23,110.225 L267.376,110.371 L270.716,107.035 L270.572,106.889 C268.103,104.381 264.791,103 261.248,103 C253.448,103 248,108.584 248,116.58 C248,124.449 253.572,130.161 261.248,130.161 C264.776,130.161 268.086,128.794 270.571,126.311 L270.716,126.165 L267.377,122.788 L267.23,122.936 C265.664,124.503 263.483,125.402 261.248,125.402 C256.295,125.402 252.836,121.775 252.836,116.58 C252.836,111.304 256.216,107.759 261.248,107.759" id="Fill-9"></path>
                    <polyline id="Fill-10" points="280 103 280 118.494 295.571 118.494 295.571 113.848 284.761 113.848 284.761 107.762 297.763 107.762 297.763 103 280 103"></polyline>
                    <polyline id="Fill-11" points="280 129.779 297.763 129.779 297.763 125.019 280 125 280 129.779"></polyline>
                    <polyline id="Fill-12" points="217 129.526 222.127 129.526 223.241 126.517 223.261 126.517 227.668 114.141 233.275 129.526 238.37 129.526 227.666 102 217 129.526"></polyline>
                    <path d="M151,4.751 C168.823,5.973 182.953,20.854 182.953,38.982 C182.953,44.384 181.694,49.496 179.462,54.047 L183.569,56.418 C186.201,51.166 187.691,45.246 187.691,38.982 C187.691,18.24 171.438,1.23 151,0 L151,4.751" id="Fill-13"></path>
                    <path d="M177.024,58 C170.851,67.137 160.398,73.156 148.565,73.156 C136.732,73.156 126.279,67.137 120.106,58 L116,60.371 C123.001,70.921 134.982,77.894 148.565,77.894 C162.148,77.894 174.129,70.921 181.13,60.371 L177.024,58" id="Fill-14"></path>
                    <path d="M118.229,54.047 C115.997,49.496 114.738,44.384 114.738,38.982 C114.738,20.854 128.868,5.973 146.692,4.751 L146.692,0 C126.253,1.229 110,18.24 110,38.982 C110,45.246 111.49,51.166 114.122,56.418 L118.229,54.047" id="Fill-15"></path>
                    <polyline id="Fill-16" points="141.559 40.897 146.338 40.897 146.338 36.117 136.779 36.117 136.779 17 132 17 132 40.897 141.559 40.897"></polyline>
                    <polyline id="Fill-17" points="155.779 26.558 155.779 17 151 17 151 31.338 155.779 31.338 155.779 26.558"></polyline>
                    <polyline id="Fill-18" points="155.897 46 132 46 132 60.338 136.779 60.338 136.779 50.779 160.677 50.779 160.677 60.338 165.456 60.338 165.456 46 155.897 46"></polyline>
                    <polyline id="Fill-19" points="160.559 17 160.559 36.117 151 36.117 151 40.897 165.338 40.897 165.338 17 160.559 17"></polyline>
                    <polyline id="Fill-20" points="146.779 26.558 146.779 17 142 17 142 31.338 146.779 31.338 146.779 26.558"></polyline>
                </g>
            </g>
        </g>
    </g>
</svg>