<?xml version="1.0" encoding="UTF-8"?>
<svg width="36px" height="36px" viewBox="0 0 36 36" version="1.1" xmlns="http://www.w3.org/2000/svg" xmlns:xlink="http://www.w3.org/1999/xlink">
    <!-- Generator: Sketch 44 (41411) - http://www.bohemiancoding.com/sketch -->
    <title>layer</title>
    <desc>Created with Sketch.</desc>
    <defs>
        <path d="M25.2754059,0 L10.7245941,0 C4.81102799,0 0,4.81102799 0,10.7245941 L0,25.2754059 C0,31.188972 4.81102799,36 10.7245941,36 L25.2754059,36 C31.188972,36 36,31.188972 36,25.2754059 L36,10.7245941 C35.9999347,4.81102799 31.1889067,0 25.2754059,0 Z M32.3784013,25.2754059 C32.3784013,29.1982491 29.1982491,32.3784013 25.2754059,32.3784013 L10.7245941,32.3784013 C6.80175089,32.3784013 3.62159867,29.1982491 3.62159867,25.2754059 L3.62159867,10.7245941 C3.62159867,6.80168556 6.80175089,3.62159867 10.7245941,3.62159867 L25.2754059,3.62159867 C29.1982491,3.62159867 32.3784013,6.80168556 32.3784013,10.7245941 L32.3784013,25.2754059 Z M27.3286512,10.9901676 C28.5608057,10.9901676 29.5596642,9.99130905 29.5596642,8.75915461 C29.5596642,7.52700017 28.5608057,6.52814164 27.3286512,6.52814164 C26.0964968,6.52814164 25.0976383,7.52700017 25.0976383,8.75915461 C25.0976383,9.99130905 26.0964968,10.9901676 27.3286512,10.9901676 Z M18.3266586,24.0159409 C15.1845294,24.0159409 12.6373763,21.4687878 12.6373763,18.3266586 C12.6373763,15.1845294 15.1845948,12.6373763 18.3266586,12.6373763 C21.4687878,12.6373763 24.0159409,15.1845294 24.0159409,18.3266586 C24.0159409,21.4687224 21.4687224,24.0159409 18.3266586,24.0159409 Z M18.3266586,9.01577761 C13.1926306,9.01577761 9.01577761,13.1926306 9.01577761,18.3265933 C9.01577761,23.460556 13.1926306,27.6374743 18.3266586,27.6374743 C23.4606866,27.6374743 27.6375396,23.4606213 27.6375396,18.3265933 C27.6375396,13.1925653 23.4606866,9.01577761 18.3266586,9.01577761 Z" id="path-1"></path>
    </defs>
    <g id="Symbols" stroke="none" stroke-width="1" fill="none" fill-rule="evenodd">
        <g id="icon/social-media/instagram">
            <mask id="mask-2" fill="white">
                <use xlink:href="#path-1"></use>
            </mask>
            <use id="layer" fill="#FFFFFF" xlink:href="#path-1"></use>
        </g>
    </g>
</svg>