<?xml version="1.0" encoding="UTF-8"?>
<svg width="44px" height="44px" viewBox="0 0 44 44" version="1.1" xmlns="http://www.w3.org/2000/svg" xmlns:xlink="http://www.w3.org/1999/xlink">
    <!-- Generator: Sketch 44 (41411) - http://www.bohemiancoding.com/sketch -->
    <title>Shape</title>
    <desc>Created with Sketch.</desc>
    <defs></defs>
    <g id="Symbols" stroke="none" stroke-width="1" fill="none" fill-rule="evenodd">
        <g id="icon/kayak" fill-rule="nonzero" fill="#A39E94">
            <g id="canoe">
                <path d="M37.8410954,31.9287552 L32.9176598,30.9812033 L29.2049544,27.2684979 C36.4384813,19.660971 40.8640415,10.5823651 42.3062739,1.68386722 C33.4077759,3.12609959 24.3292614,7.55165975 16.7217344,14.785278 L13.009029,11.0725726 L12.0614772,6.14913693 L5.91234025,0 L0,5.91243154 L6.14922822,12.0615685 L11.0726639,13.0092116 L14.7853693,16.721917 C7.55184232,24.329444 3.12619087,33.4079585 1.68395851,42.3064564 C10.5824564,40.8642241 19.660971,36.4386639 27.2685892,29.2050456 L30.9812946,32.917751 L31.9289378,37.8411867 L38.0780747,43.9903237 L43.9904149,38.0779834 L37.8410954,31.9287552 Z M22.2954938,27.935527 C21.4620498,28.768971 20.3539253,29.2280498 19.1754191,29.2280498 C17.9962739,29.2279585 16.8881494,28.768971 16.0547967,27.935527 C15.2213527,27.102083 14.7622739,25.9938672 14.7622739,24.8151784 C14.7622739,23.6364896 15.2212614,22.5282739 16.0547967,21.6948299 L17.9065394,19.8430871 L19.8429959,21.7795436 L17.9912531,23.6312863 C17.6750373,23.9475021 17.5008631,24.3679668 17.5008631,24.8151784 C17.5008631,25.26239 17.6750373,25.6828548 17.9912531,25.9990705 C18.3074689,26.315195 18.7279336,26.4893693 19.1752365,26.4894606 C19.6224481,26.4894606 20.0427303,26.3152863 20.3590373,25.9990705 L22.2107801,24.1473278 L24.1472365,26.0837842 L22.2954938,27.935527 Z M26.0836929,24.1473278 L24.1472365,22.2108714 L25.9989793,20.3591286 C26.315195,20.0429129 26.4893693,19.6224481 26.4893693,19.1752365 C26.4893693,18.7280249 26.315195,18.3075602 25.9989793,17.9913444 C25.6827635,17.6751286 25.2622988,17.5009544 24.8150871,17.5009544 C24.3679668,17.5009544 23.9475021,17.6751286 23.631195,17.9913444 L21.7794523,19.8430871 L19.8429959,17.9066307 L21.6947386,16.054888 C22.5281826,15.221444 23.6363983,14.7623651 24.8150871,14.7623651 C25.9938672,14.7623651 27.1019917,15.2213527 27.9354357,16.054888 C28.7688797,16.8884232 29.2279585,17.9965477 29.2279585,19.1752365 C29.2279585,20.3539253 28.7688797,21.4620498 27.9354357,22.2955851 L26.0836929,24.1473278 Z" id="Shape"></path>
            </g>
        </g>
    </g>
</svg>