<?xml version="1.0" encoding="UTF-8"?>
<svg width="36px" height="36px" viewBox="0 0 36 36" version="1.1" xmlns="http://www.w3.org/2000/svg" xmlns:xlink="http://www.w3.org/1999/xlink">
    <!-- Generator: Sketch 44 (41411) - http://www.bohemiancoding.com/sketch -->
    <title>LinkedIn</title>
    <desc>Created with Sketch.</desc>
    <defs>
        <path d="M36,22.0715714 L36,36 L28.2840343,36 L28.2840343,23.0044136 C28.2840343,19.7398164 27.1680031,17.5118564 24.3750793,17.5118564 C22.2430362,17.5118564 20.9742558,19.0133381 20.4160728,20.465769 C20.2125189,20.9850074 20.1601239,21.7077192 20.1601239,22.4345478 L20.1601239,36 L12.4415636,36 C12.4415636,36 12.5455167,13.9897421 12.4415636,11.7093153 L20.1593706,11.7093153 L20.1593706,15.1524226 C20.143719,15.1781743 20.1233804,15.2059406 20.1086495,15.230904 L20.1593706,15.230904 L20.1593706,15.1524226 C21.1847567,13.4996715 23.0159887,11.1386611 27.1148548,11.1386611 C32.193073,11.1385735 36,14.6104107 36,22.0715714 Z M4.3676209,0 C1.72711146,0 0,1.81251673 0,4.19603798 C0,6.52761787 1.67714366,8.39514163 4.26517436,8.39514163 L4.31673242,8.39514163 C7.00838144,8.39514163 8.68234457,6.52796823 8.68234457,4.19603798 C8.63162349,1.81251673 7.00838144,0 4.3676209,0 Z M0.458414803,36 L8.17404567,36 L8.17404567,11.7093153 L0.458414803,11.7093153 L0.458414803,36 Z" id="path-1"></path>
    </defs>
    <g id="Symbols" stroke="none" stroke-width="1" fill="none" fill-rule="evenodd">
        <g id="icon/social-media/linkedin">
            <mask id="mask-2" fill="white">
                <use xlink:href="#path-1"></use>
            </mask>
            <use id="LinkedIn" fill="#FFFFFF" fill-rule="nonzero" xlink:href="#path-1"></use>
        </g>
    </g>
</svg>