<?xml version="1.0" encoding="UTF-8"?>
<svg width="24px" height="24px" viewBox="0 0 24 24" version="1.1" xmlns="http://www.w3.org/2000/svg" xmlns:xlink="http://www.w3.org/1999/xlink">
    <!-- Generator: Sketch 44 (41411) - http://www.bohemiancoding.com/sketch -->
    <title>Group 2</title>
    <desc>Created with Sketch.</desc>
    <defs></defs>
    <g id="Symbols" stroke="none" stroke-width="1" fill="none" fill-rule="evenodd">
        <g id="equipe" transform="translate(-14.000000, -415.000000)" fill-rule="nonzero" fill="#A39E94">
            <g id="icon/bank" transform="translate(15.000000, 416.000000)">
                <g id="Group-2" transform="translate(-1.000000, -1.000000)">
                    <path d="M21,15.6 C22.5091926,15.6 23.5,14.6445786 23.5,13.1 C23.5,12.3841612 23.2477835,11.8418958 22.8238242,11.4815303 C22.5628971,11.2597423 22.299521,11.1500023 22.0980581,11.1097097 L21.9019419,12.0902903 C21.950479,12.0999977 22.0621029,12.1465077 22.1761758,12.2434697 C22.3772165,12.4143542 22.5,12.6783388 22.5,13.1 C22.5,14.0839928 21.9648815,14.6 21,14.6 L21,15.6 Z" id="Stroke-3"></path>
                    <path d="M9.32715519,8.5 L15,8.5 C18.5761424,8.5 21.5,11.4238576 21.5,15 C21.5,17.7111334 19.8910069,20.06067 17.5,21.0448801 L17.5,23.5 L13.5,23.5 L13.5,21.5 L10.5,21.5 L10.5,23.5 L6.5,23.5 L6.5,21.041639 C5.27535844,20.5242975 4.24422526,19.6315321 3.51977495,18.5 L0.5,18.5 L0.5,12.5 L3.06577187,12.5 C3.57511183,11.349076 4.37868022,10.3754988 5.39799092,9.68795983 L4.3660956,6.6954634 L4.8318318,6.52912904 C4.90793745,6.50194846 5.03241942,6.46576184 5.1971681,6.43085745 C5.92512315,6.27662969 6.71028249,6.29561323 7.4621982,6.61298025 C8.24360517,6.94279488 8.88253427,7.56332213 9.32715519,8.5 Z M16.5,20.3445306 L16.8357397,20.2277516 C19.0112381,19.4710565 20.5,17.4076848 20.5,15 C20.5,11.9761424 18.0238576,9.5 15,9.5 L8.66148352,9.5 L8.53576165,9.18569534 C8.18784368,8.3159004 7.68860274,7.79396669 7.07333899,7.53427745 C6.61815011,7.34215227 6.12658754,7.30280359 5.65503874,7.36582619 L6.60649895,10.1250608 L6.25193551,10.3318895 C5.16794048,10.9642199 4.33363598,11.9653853 3.8666728,13.1794895 L3.74339955,13.5 L1.5,13.5 L1.5,17.5 L4.08718517,17.5 L4.23188945,17.7480645 C4.90534192,18.9025544 5.9353428,19.7888343 7.1681682,20.229129 L7.5,20.3476404 L7.5,22.5 L9.5,22.5 L9.5,20.5 L14.5,20.5 L14.5,22.5 L16.5,22.5 L16.5,20.3445306 Z" id="Stroke-5"></path>
                    <polygon id="Stroke-7" points="10.5 12.5 15.5 12.5 15.5 11.5 10.5 11.5"></polygon>
                    <path d="M13.8232196,1.46966987 L14.4142095,0.878679219 L14.7677632,1.23223238 C14.8888431,1.35331221 14.9949071,1.48372181 15.085955,1.62114706 C15.7290596,2.59183211 15.6229956,3.91253628 14.7677629,4.76776784 C13.7914509,5.74407739 12.2085491,5.74407739 11.2322368,4.76776762 C10.2559244,3.79145642 10.2559244,2.20854358 11.232237,1.23223218 C12.087469,0.377002318 13.4081644,0.270938563 14.3788479,0.914040914 C14.5162731,1.00508861 14.6466829,1.11115237 14.767763,1.23223218 L15.1213168,1.58578514 L14.4142109,2.29289278 L14.060657,1.93933982 L13.7071032,1.58578645 L13.8232196,1.46966987 C13.1717543,1.36945896 12.4286044,1.45007957 11.9393432,1.93933962 C11.3535556,2.52512642 11.3535556,3.47487358 11.9393429,4.06066016 C12.5251309,4.64644661 13.4748691,4.64644661 14.0606568,4.06066038 C14.6464444,3.47487358 14.6464444,2.52512642 14.0606568,1.93933962 C13.9641303,1.84281339 13.8577216,1.76219282 13.7446875,1.6974779 Z" id="Stroke-9"></path>
                </g>
            </g>
        </g>
    </g>
</svg>