<?xml version="1.0" encoding="UTF-8"?>
<svg width="41px" height="44px" viewBox="0 0 41 44" version="1.1" xmlns="http://www.w3.org/2000/svg" xmlns:xlink="http://www.w3.org/1999/xlink">
    <!-- Generator: Sketch 44 (41411) - http://www.bohemiancoding.com/sketch -->
    <title>Group 2</title>
    <desc>Created with Sketch.</desc>
    <defs></defs>
    <g id="Symbols" stroke="none" stroke-width="1" fill="none" fill-rule="evenodd">
        <g id="icon/run" fill="#A39E94">
            <g id="Page-1">
                <g id="Group-2">
                    <path d="M6.28571193,23.047619 C5.74962424,23.047619 5.21302322,22.8430086 4.80431555,22.4337771 C3.98586307,21.6153248 3.98586307,20.2894267 4.80431555,19.4709848 L11.0900306,13.1852705 C11.4828878,12.7924133 12.015906,12.5714286 12.571427,12.5714286 L23.0476188,12.5714286 C24.2047037,12.5714286 25.1428571,13.5095819 25.1428571,14.6666667 C25.1428571,15.8237514 24.2047037,16.7619048 23.0476188,16.7619048 L13.4394947,16.7619048 L7.7671083,22.4337771 C7.35839016,22.8430086 6.82179961,23.047619 6.28571193,23.047619 Z" id="Fill-1"></path>
                    <path d="M23.0476199,36.6666667 L8.38097256,36.6666667 C7.58759075,36.6666667 6.86171742,36.2185038 6.5067217,35.5083878 C6.15222884,34.7982824 6.2284535,33.949012 6.70467954,33.3135916 L12.9903855,24.9314278 C13.3551031,24.4453985 13.9121634,24.1415032 14.5183359,24.0985341 C15.1296208,24.0657913 15.7189057,24.2775981 16.1480728,24.7073411 L24.5290141,33.0895049 C25.1285343,33.6891125 25.3075617,34.589535 24.9832507,35.3733197 C24.6589397,36.1560881 23.8952264,36.6666667 23.0476199,36.6666667 Z" id="Fill-3"></path>
                    <path d="M35.8732401,1.84104566 C38.3279676,4.29577321 38.3279676,8.27565536 35.8732401,10.7303829 C33.4185125,13.1851105 29.4386199,13.1851105 26.9839028,10.7303829 C24.5291753,8.27565536 24.5291753,4.29577321 26.9839028,1.84104566 C29.4386199,-0.613681887 33.4185125,-0.613681887 35.8732401,1.84104566" id="Fill-4"></path>
                    <path d="M40.2600067,13.161397 C39.4648238,12.3750728 38.1730173,12.3750728 37.3778344,13.161397 L31.5920784,18.8750273 C31.5920784,18.8750273 25.9872759,13.9097562 25.6468414,13.6294473 C23.6864971,12.0154521 20.7707247,12.2774025 19.1365066,14.2146436 L0.392022597,40.8119282 C-1.04228643,42.8470912 1.79230346,45.1443858 3.5333959,43.3578371 L26.2388132,20.0597222 C26.3045562,19.9818295 26.3479194,19.8939827 26.4075681,19.8131309 L30.3430644,23.14475 C30.7282277,23.4779703 31.2069252,23.6430959 31.6846342,23.6430959 C32.2081216,23.6430959 32.7296218,23.445531 33.1262196,23.0533502 L40.2600067,16.0078855 C41.0561883,15.2215613 41.0561883,13.9477211 40.2600067,13.161397 Z" id="Fill-5"></path>
                </g>
            </g>
        </g>
    </g>
</svg>