<?xml version="1.0" encoding="UTF-8"?>
<svg width="24px" height="22px" viewBox="0 0 24 22" version="1.1" xmlns="http://www.w3.org/2000/svg" xmlns:xlink="http://www.w3.org/1999/xlink">
    <!-- Generator: Sketch 44 (41411) - http://www.bohemiancoding.com/sketch -->
    <title>Group 3</title>
    <desc>Created with Sketch.</desc>
    <defs></defs>
    <g id="Symbols" stroke="none" stroke-width="1" fill="none" fill-rule="evenodd">
        <g id="equipe" transform="translate(-14.000000, -379.000000)" fill-rule="nonzero" fill="#A39E94">
            <g id="icon/run" transform="translate(15.000000, 380.000000)">
                <g id="Group-3" transform="translate(-1.000000, -1.000000)">
                    <path d="M17.9393432,1.93933962 C17.3535556,2.52512642 17.3535556,3.47487358 17.9393429,4.06066016 C18.5251309,4.64644661 19.4748691,4.64644661 20.0606568,4.06066038 C20.6464444,3.47487358 20.6464444,2.52512642 20.0606568,1.93933962 C19.4748689,1.35355329 18.5251308,1.35355336 17.9393432,1.93933962 Z M20.4142109,2.29289278 L20.060657,1.93933982 L19.7071032,1.58578645 L20.4142095,0.878679219 L20.7677632,1.23223238 C20.8888431,1.35331221 20.9949071,1.48372181 21.085955,1.62114706 C21.7290596,2.59183211 21.6229956,3.91253628 20.7677629,4.76776784 C19.7914509,5.74407739 18.2085491,5.74407739 17.2322368,4.76776762 C16.2559244,3.79145642 16.2559244,2.20854358 17.232237,1.23223218 C18.087469,0.377002318 19.4081644,0.270938563 20.3788479,0.914040914 C20.5162731,1.00508861 20.6466829,1.11115237 20.767763,1.23223218 L21.1213168,1.58578514 L20.4142109,2.29289278 Z" id="Stroke-3"></path>
                    <path d="M14.6464466,6.64644661 L10.6464466,10.6464466 C9.53090766,11.7619856 9.71480913,13.6192346 11.0274599,14.4943351 L14.090039,16.5360645 C14.3340327,16.698722 14.3863122,17.0354505 14.2031264,17.2644314 L11.6014658,20.6980555 L12.3985342,21.3019445 L14.9920942,17.8787245 C15.5335486,17.2021885 15.3767062,16.1919773 14.6447342,15.7040109 L11.582161,13.6622855 C10.7945722,13.1372263 10.6842312,12.0228756 11.3535534,11.3535534 L15.3535534,7.35355339 L14.6464466,6.64644661 Z" id="Stroke-5"></path>
                    <path d="M7.35355329,6.35355349 L9.08777229,4.61933549 C9.62823043,4.0788766 10.4886375,4.03122268 11.0854722,4.50869117 L18.2898326,10.2721765 C19.2845563,11.0679605 20.7185699,10.9885372 21.6193336,10.0877721 L23.3535533,8.35355349 L22.6464467,7.64644651 L20.9122267,9.38066551 C20.3717687,9.92112431 19.5113621,9.96877822 18.9145287,9.49130855 L11.7101674,3.72782252 C10.7154418,2.93204076 9.28142894,3.01146403 8.38066536,3.91222885 L6.64644671,5.64644651 L7.35355329,6.35355349 Z" id="Stroke-7"></path>
                    <polygon id="Stroke-9" points="6.64644661 14.6464466 0.646446609 20.6464466 1.35355339 21.3535534 7.35355339 15.3535534"></polygon>
                </g>
            </g>
        </g>
    </g>
</svg>