<?xml version="1.0" encoding="UTF-8"?>
<svg width="23px" height="23px" viewBox="0 0 23 23" version="1.1" xmlns="http://www.w3.org/2000/svg" xmlns:xlink="http://www.w3.org/1999/xlink">
    <!-- Generator: Sketch 44 (41411) - http://www.bohemiancoding.com/sketch -->
    <title>Group 3</title>
    <desc>Created with Sketch.</desc>
    <defs></defs>
    <g id="Symbols" stroke="none" stroke-width="1" fill="none" fill-rule="evenodd">
        <g id="Modules/News" transform="translate(-16.000000, -415.000000)" fill-rule="nonzero" fill="#A39E94">
            <g id="News">
                <g id="Page-1" transform="translate(17.000000, 416.000000)">
                    <g id="Group-3" transform="translate(-1.000000, -1.000000)">
                        <path d="M13,22.7071068 L0.5,10.2071068 L0.5,0.5 L10.2071068,0.5 L22.7071068,13 L13,22.7071068 Z M21.2928932,13 L9.79289322,1.5 L1.5,1.5 L1.5,9.79289322 L13,21.2928932 L21.2928932,13 Z" id="Stroke-3"></path>
                        <path d="M5.93933962,5.93933916 C5.35355346,6.52512607 5.35355346,7.47487393 5.93933916,8.06066038 C6.52512607,8.64644654 7.47487393,8.64644654 8.06066038,8.06066084 C8.64644654,7.47487393 8.64644654,6.52512607 8.06066038,5.93933916 C7.47487344,5.35355346 6.52512592,5.35355361 5.93933962,5.93933916 Z M8.41421445,6.29289278 L8.06066084,5.93933962 L7.70710722,5.58578555 L8.41421445,4.87867922 L8.76776762,5.23223284 C8.88884735,5.35331272 8.99491104,5.48372237 9.0859587,5.62114767 C9.72906142,6.59183251 9.62299768,7.91253601 8.76776716,8.76776762 C7.79145607,9.74407746 6.20854393,9.74407746 5.23223238,8.76776716 C4.25592254,7.79145607 4.25592254,6.20854393 5.23223284,5.23223238 C6.08746405,4.37700227 7.4081675,4.27093857 8.37885233,4.9140413 C8.51627763,5.00508896 8.64668728,5.11115265 8.76776716,5.23223238 L9.12132078,5.58578555 L8.41421445,6.29289278 Z" id="Stroke-5"></path>
                    </g>
                </g>
            </g>
        </g>
    </g>
</svg>