<?xml version="1.0" encoding="UTF-8"?>
<svg width="20px" height="24px" viewBox="0 0 20 24" version="1.1" xmlns="http://www.w3.org/2000/svg" xmlns:xlink="http://www.w3.org/1999/xlink">
    <!-- Generator: Sketch 44 (41411) - http://www.bohemiancoding.com/sketch -->
    <title>Group 4</title>
    <desc>Created with Sketch.</desc>
    <defs></defs>
    <g id="Symbols" stroke="none" stroke-width="1" fill="none" fill-rule="evenodd">
        <g id="equipe" transform="translate(-15.000000, -453.000000)" fill-rule="nonzero" fill="#A39E94">
            <g id="icon/date" transform="translate(16.000000, 454.000000)">
                <g id="Group-4" transform="translate(-1.000000, -1.000000)">
                    <polygon id="Stroke-3" points="10.5 13.5 10.5 9.5 9.5 9.5 9.5 14.5 14.5 14.5 14.5 13.5"></polygon>
                    <path d="M15.8336299,7.45926228 L16.3639601,6.92893222 L16.7175134,7.28248566 C16.8361074,7.40107966 16.9509104,7.52202908 17.0619224,7.64518333 C20.4237045,11.3746706 20.3089016,17.1261252 16.7175134,20.7175134 C13.0075312,24.4274955 6.99246671,24.4274955 3.28248556,20.7175133 C-0.427495511,17.0075312 -0.427495511,10.9924688 3.28248561,7.28248561 C6.87387278,3.69109844 12.6253292,3.57629547 16.3548157,6.93807665 C16.4779699,7.04908862 16.5989193,7.16389159 16.7175133,7.28248556 L17.0710668,7.6360389 L16.3639601,8.34314578 L16.0104067,7.98959244 L15.6568532,7.6360389 L15.8336299,7.45926228 C12.3245483,4.67403288 7.19530792,4.78387686 3.98959249,7.98959229 C0.670135511,11.3090512 0.670135511,16.6909488 3.98959244,20.0104067 C7.30904929,23.3298645 12.6909488,23.3298645 16.0104066,20.0104066 C19.3298645,16.6909487 19.3298645,11.3090512 16.0104066,7.98959234 C15.8966652,7.87585104 15.7805024,7.76600709 15.662084,7.66006048 Z" id="Stroke-5"></path>
                    <polygon id="Stroke-7" points="7.5 1.5 12.5 1.5 12.5 0.5 7.5 0.5"></polygon>
                    <polygon id="Stroke-9" points="9.5 0.5 9.5 5.5 10.5 5.5 10.5 0.5"></polygon>
                </g>
            </g>
        </g>
    </g>
</svg>