<?xml version="1.0" encoding="UTF-8"?>
<svg width="22px" height="22px" viewBox="0 0 22 22" version="1.1" xmlns="http://www.w3.org/2000/svg" xmlns:xlink="http://www.w3.org/1999/xlink">
    <!-- Generator: Sketch 44 (41411) - http://www.bohemiancoding.com/sketch -->
    <title>Group 2</title>
    <desc>Created with Sketch.</desc>
    <defs></defs>
    <g id="Symbols" stroke="none" stroke-width="1" fill="none" fill-rule="evenodd">
        <g id="Modules/News" transform="translate(-15.000000, -378.000000)" fill-rule="nonzero" fill="#A39E94">
            <g id="News">
                <g id="Page-1" transform="translate(16.000000, 379.000000)">
                    <g id="Group-2" transform="translate(-1.000000, -1.000000)">
                        <path d="M4.28248526,4.28248516 C0.572504848,7.99246661 0.572504848,14.0075358 4.28248529,17.7175103 C7.99246671,21.4274935 14.0075357,21.4274935 17.7175107,17.7175098 C21.4274935,14.0075357 21.4274935,7.99246671 17.7175103,4.28248529 C14.0075356,0.572504848 7.99246654,0.572504909 4.28248526,4.28248516 Z M18.0710631,4.6360386 L17.71751,4.28248493 L17.3639569,3.92893198 L18.0710635,3.22182504 L18.4246169,3.57537835 C18.5431383,3.69389964 18.6582325,3.81454798 18.7699011,3.93720171 C22.521699,8.05807471 22.4066043,14.442639 18.4246174,18.4246166 C14.3241189,22.5251247 7.6758842,22.5251247 3.57537871,18.4246173 C-0.525126302,14.3241188 -0.525126302,7.6758843 3.57537848,3.57537838 C7.55736381,-0.406605843 13.9419278,-0.521700602 18.0627941,3.2300944 C18.1854483,3.34176347 18.306097,3.45685824 18.4246173,3.57537871 L18.7781704,3.92893238 L18.0710631,4.6360386 Z" id="Stroke-3"></path>
                        <polygon id="Stroke-5" points="11.5 10.5 11.5 5.04545455 10.5 5.04545455 10.5 11.5 16.9545455 11.5 16.9545455 10.5"></polygon>
                    </g>
                </g>
            </g>
        </g>
    </g>
</svg>