<?xml version="1.0" encoding="UTF-8"?>
<svg width="36px" height="31px" viewBox="0 0 36 31" version="1.1" xmlns="http://www.w3.org/2000/svg" xmlns:xlink="http://www.w3.org/1999/xlink">
    <!-- Generator: Sketch 44 (41411) - http://www.bohemiancoding.com/sketch -->
    <title>layer</title>
    <desc>Created with Sketch.</desc>
    <defs>
        <path d="M30.3135129,5.40304239 C28.9697488,3.92409836 27.0492617,3 24.9230769,3 C20.847569,3 17.5400635,6.41027093 17.5400635,10.6160784 C17.5400635,11.2134558 17.6035031,11.7924672 17.7303821,12.3502128 C11.5921288,12.0321915 6.15074894,9.00373945 2.50586068,4.39001406 C1.86954316,5.519038 1.50620778,6.82882176 1.50620778,8.22366897 C1.50620778,10.8645024 2.80960137,13.1960141 4.79256668,14.5618624 C3.58337116,14.5251305 2.44242117,14.1790769 1.44469068,13.6126317 L1.44469068,13.7054282 C1.44469068,17.3969885 3.99092196,20.4766719 7.37244012,21.1736122 C6.75342429,21.3524388 6.09980509,21.4423354 5.42600059,21.4423354 C4.95020426,21.4423354 4.48594238,21.3959371 4.03609858,21.3070071 C4.97615678,24.3315927 7.70213334,26.5345426 10.9346648,26.5935071 C8.4076576,28.6369631 5.22126398,29.854917 1.76188823,29.854917 C1.16594131,29.854917 0.576722826,29.8201183 0,29.7505209 C3.26809601,31.9080393 7.15232425,33.1694915 11.3220303,33.1694915 C24.9086589,33.1694915 32.3358876,21.566064 32.3358876,11.500545 C32.3358876,11.1689908 32.3301204,10.8384033 32.3176248,10.5136156 C33.760393,9.43968961 35.013804,8.09897369 36,6.57169816 C34.6773823,7.17680859 33.2528769,7.58665974 31.7591648,7.77031946 C33.2845967,6.82882176 34.455344,5.33634491 35.0070755,3.55774556 C33.5787253,4.42964589 32.0004272,5.06375523 30.3135129,5.40304239 Z" id="path-1"></path>
    </defs>
    <g id="Symbols" stroke="none" stroke-width="1" fill="none" fill-rule="evenodd">
        <g id="icon/social-media/twitter" transform="translate(0.000000, -3.000000)">
            <mask id="mask-2" fill="white">
                <use xlink:href="#path-1"></use>
            </mask>
            <use id="layer" fill="#FFFFFF" xlink:href="#path-1"></use>
        </g>
    </g>
</svg>